<mxfile host="drawio-plugin" modified="2023-08-15T17:14:45.470Z" agent="5.0 (X11; Linux x86_64) AppleWebKit/537.36 (KHTML, like Gecko) Chrome/111.0.0.0 Safari/537.36" etag="55iY5ycTDu-ZD92a9uhC" version="20.5.3" type="embed"><diagram name="Page-1" id="2s_cXrYBDI9Ajyp4g-Cy"><mxGraphModel dx="1555" dy="1091" grid="1" gridSize="10" guides="1" tooltips="1" connect="1" arrows="1" fold="1" page="1" pageScale="1" pageWidth="850" pageHeight="1100" math="0" shadow="0"><root><mxCell id="0"/><mxCell id="1" parent="0"/><mxCell id="vhc1uj8UUpPZhkch4ml6-9" style="edgeStyle=orthogonalEdgeStyle;rounded=0;orthogonalLoop=1;jettySize=auto;html=1;dashed=1;" parent="1" source="vhc1uj8UUpPZhkch4ml6-1" target="vhc1uj8UUpPZhkch4ml6-14" edge="1"><mxGeometry relative="1" as="geometry"/></mxCell><mxCell id="13" style="edgeStyle=orthogonalEdgeStyle;rounded=0;orthogonalLoop=1;jettySize=auto;html=1;dashed=1;" edge="1" parent="1" source="vhc1uj8UUpPZhkch4ml6-1" target="21"><mxGeometry relative="1" as="geometry"><mxPoint x="340" y="380" as="targetPoint"/></mxGeometry></mxCell><mxCell id="vhc1uj8UUpPZhkch4ml6-1" value="Listener" style="rounded=0;whiteSpace=wrap;html=1;" parent="1" vertex="1"><mxGeometry x="280" y="260" width="120" height="60" as="geometry"/></mxCell><mxCell id="vhc1uj8UUpPZhkch4ml6-4" value="Provider" style="whiteSpace=wrap;html=1;" parent="1" vertex="1"><mxGeometry x="300" y="60" width="120" height="60" as="geometry"/></mxCell><mxCell id="vhc1uj8UUpPZhkch4ml6-3" value="Provider" style="whiteSpace=wrap;html=1;" parent="1" vertex="1"><mxGeometry x="290" y="70" width="120" height="60" as="geometry"/></mxCell><mxCell id="vhc1uj8UUpPZhkch4ml6-5" style="edgeStyle=orthogonalEdgeStyle;rounded=0;orthogonalLoop=1;jettySize=auto;html=1;dashed=1;" parent="1" source="vhc1uj8UUpPZhkch4ml6-2" target="vhc1uj8UUpPZhkch4ml6-1" edge="1"><mxGeometry relative="1" as="geometry"/></mxCell><mxCell id="vhc1uj8UUpPZhkch4ml6-2" value="Provider" style="whiteSpace=wrap;html=1;" parent="1" vertex="1"><mxGeometry x="280" y="80" width="120" height="60" as="geometry"/></mxCell><mxCell id="vhc1uj8UUpPZhkch4ml6-14" value="DB" style="shape=cylinder3;whiteSpace=wrap;html=1;boundedLbl=1;backgroundOutline=1;size=15;" parent="1" vertex="1"><mxGeometry x="490" y="250" width="60" height="80" as="geometry"/></mxCell><mxCell id="vhc1uj8UUpPZhkch4ml6-18" style="edgeStyle=orthogonalEdgeStyle;rounded=0;orthogonalLoop=1;jettySize=auto;html=1;startArrow=none;" parent="1" source="vhc1uj8UUpPZhkch4ml6-19" target="vhc1uj8UUpPZhkch4ml6-17" edge="1"><mxGeometry relative="1" as="geometry"/></mxCell><mxCell id="16" style="edgeStyle=orthogonalEdgeStyle;rounded=0;orthogonalLoop=1;jettySize=auto;html=1;" edge="1" parent="1" source="vhc1uj8UUpPZhkch4ml6-17" target="vhc1uj8UUpPZhkch4ml6-14"><mxGeometry relative="1" as="geometry"/></mxCell><mxCell id="vhc1uj8UUpPZhkch4ml6-17" value="Next.JS" style="whiteSpace=wrap;html=1;" parent="1" vertex="1"><mxGeometry x="460" y="404" width="120" height="60" as="geometry"/></mxCell><mxCell id="vhc1uj8UUpPZhkch4ml6-21" value="&lt;div&gt;Listen on websocket&lt;/div&gt;&lt;div&gt;&lt;br&gt;&lt;/div&gt;" style="text;html=1;align=center;verticalAlign=middle;resizable=0;points=[];autosize=1;strokeColor=none;fillColor=none;" parent="1" vertex="1"><mxGeometry x="341" y="190" width="130" height="40" as="geometry"/></mxCell><mxCell id="7" style="edgeStyle=orthogonalEdgeStyle;rounded=0;orthogonalLoop=1;jettySize=auto;html=1;dashed=1;" edge="1" parent="1"><mxGeometry relative="1" as="geometry"><mxPoint x="30" y="30" as="sourcePoint"/><mxPoint x="135.25" y="30" as="targetPoint"/></mxGeometry></mxCell><mxCell id="8" style="edgeStyle=orthogonalEdgeStyle;rounded=0;orthogonalLoop=1;jettySize=auto;html=1;" edge="1" parent="1"><mxGeometry relative="1" as="geometry"><mxPoint x="30" y="89.5" as="sourcePoint"/><mxPoint x="135.25" y="89.5" as="targetPoint"/></mxGeometry></mxCell><mxCell id="9" value="Writes to" style="text;html=1;align=center;verticalAlign=middle;resizable=0;points=[];autosize=1;strokeColor=none;fillColor=none;" vertex="1" parent="1"><mxGeometry x="45" y="25" width="70" height="30" as="geometry"/></mxCell><mxCell id="10" value="Reads From" style="text;html=1;align=center;verticalAlign=middle;resizable=0;points=[];autosize=1;strokeColor=none;fillColor=none;" vertex="1" parent="1"><mxGeometry x="35" y="85" width="90" height="30" as="geometry"/></mxCell><mxCell id="vhc1uj8UUpPZhkch4ml6-19" value="Website&lt;br&gt;&lt;div&gt;ccip-explorer.vercel.com&lt;/div&gt;&lt;div&gt;&lt;br&gt;&lt;/div&gt;" style="whiteSpace=wrap;html=1;" parent="1" vertex="1"><mxGeometry x="250" y="544" width="180" height="60" as="geometry"/></mxCell><mxCell id="17" value="Tell client data has been updated" style="text;html=1;align=center;verticalAlign=middle;resizable=0;points=[];autosize=1;strokeColor=none;fillColor=none;" vertex="1" parent="1"><mxGeometry x="141" y="340" width="200" height="30" as="geometry"/></mxCell><mxCell id="18" value="get/:data" style="text;html=1;align=center;verticalAlign=middle;resizable=0;points=[];autosize=1;strokeColor=none;fillColor=none;" vertex="1" parent="1"><mxGeometry x="450" y="500" width="70" height="30" as="geometry"/></mxCell><mxCell id="24" style="edgeStyle=orthogonalEdgeStyle;rounded=0;orthogonalLoop=1;jettySize=auto;html=1;dashed=1;" edge="1" parent="1" source="21" target="vhc1uj8UUpPZhkch4ml6-19"><mxGeometry relative="1" as="geometry"/></mxCell><mxCell id="21" value="Ws Provider" style="rounded=0;whiteSpace=wrap;html=1;" vertex="1" parent="1"><mxGeometry x="280" y="404" width="120" height="60" as="geometry"/></mxCell></root></mxGraphModel></diagram></mxfile>